<svg width="38" height="30" viewBox="0 0 38 30" fill="none" xmlns="http://www.w3.org/2000/svg">
<path fill-rule="evenodd" clip-rule="evenodd" d="M38 0H0V24.8182H5.42037L9.5 30L13.5796 24.8182H38V0Z" fill="black"/>
<path d="M3.683 8.3H4.849C5.36233 8.3 5.795 8.377 6.147 8.531C6.50633 8.685 6.77767 8.90133 6.961 9.18C7.14433 9.45133 7.236 9.77033 7.236 10.137C7.236 10.445 7.17733 10.7163 7.06 10.951C6.94267 11.1783 6.79233 11.3653 6.609 11.512C6.42567 11.6513 6.23133 11.7503 6.026 11.809C6.41467 11.8677 6.74833 11.996 7.027 12.194C7.313 12.392 7.52933 12.6413 7.676 12.942C7.83 13.2353 7.907 13.5653 7.907 13.932C7.907 14.3427 7.808 14.7057 7.61 15.021C7.412 15.329 7.11867 15.571 6.73 15.747C6.34867 15.9157 5.88667 16 5.344 16H4.123C4.123 16 4.123 15.967 4.123 15.901C4.13033 15.835 4.134 15.769 4.134 15.703C4.134 15.637 4.134 15.604 4.134 15.604H5.3C5.68133 15.604 6.004 15.538 6.268 15.406C6.532 15.2667 6.73367 15.065 6.873 14.801C7.01233 14.537 7.082 14.2217 7.082 13.855C7.082 13.4443 7.00133 13.1107 6.84 12.854C6.686 12.5973 6.48433 12.403 6.235 12.271C5.98567 12.139 5.71433 12.051 5.421 12.007C5.135 11.9557 4.86 11.93 4.596 11.93V11.831C4.76467 11.831 4.95167 11.8127 5.157 11.776C5.36233 11.7393 5.56033 11.666 5.751 11.556C5.94167 11.446 6.09933 11.2847 6.224 11.072C6.34867 10.852 6.411 10.566 6.411 10.214C6.411 9.884 6.34867 9.60167 6.224 9.367C6.10667 9.13233 5.927 8.95633 5.685 8.839C5.45033 8.71433 5.157 8.652 4.805 8.652H3.793C3.793 8.64467 3.782 8.61533 3.76 8.564C3.74533 8.50533 3.727 8.44667 3.705 8.388C3.69033 8.32933 3.683 8.3 3.683 8.3ZM4.222 8.3V16H3.507V8.3H4.222ZM3.54 15.197V16H2.66L2.671 15.89C2.68567 15.89 2.70767 15.89 2.737 15.89C2.77367 15.89 2.79567 15.89 2.803 15.89C2.99367 15.89 3.15867 15.824 3.298 15.692C3.43733 15.5527 3.507 15.3877 3.507 15.197H3.54ZM3.54 9.103H3.507C3.507 8.91233 3.43733 8.751 3.298 8.619C3.15867 8.47967 2.99367 8.41 2.803 8.41C2.79567 8.41 2.77367 8.41 2.737 8.41C2.70767 8.41 2.68567 8.41 2.671 8.41L2.66 8.3H3.54V9.103ZM10.4389 9.4V16H9.73489V9.4H10.4389ZM13.3979 15.659L13.3759 16H10.4169V15.659H13.3979ZM14.0139 14.427L13.4089 16H11.7369L12.1109 15.659C12.4776 15.659 12.7709 15.6077 12.9909 15.505C13.2182 15.395 13.4016 15.2483 13.5409 15.065C13.6802 14.8743 13.8012 14.6617 13.9039 14.427H14.0139ZM9.75689 15.296L9.89989 16H8.94289V15.89C8.94289 15.89 8.96856 15.89 9.01989 15.89C9.07122 15.89 9.09689 15.89 9.09689 15.89C9.28022 15.89 9.43056 15.8313 9.54789 15.714C9.66522 15.5967 9.72756 15.4573 9.73489 15.296H9.75689ZM10.4059 10.104V9.4H11.2199V9.51C11.2199 9.51 11.1979 9.51 11.1539 9.51C11.1099 9.51 11.0879 9.51 11.0879 9.51C10.9119 9.51 10.7579 9.56867 10.6259 9.686C10.5012 9.796 10.4389 9.93533 10.4389 10.104H10.4059ZM9.75689 10.104H9.73489C9.72756 9.93533 9.66156 9.796 9.53689 9.686C9.41222 9.56867 9.25822 9.51 9.07489 9.51C9.07489 9.51 9.05289 9.51 9.00889 9.51C8.96489 9.51 8.94289 9.51 8.94289 9.51V9.4H9.75689V10.104ZM17.9314 9.246L20.9564 15.934H20.0874L17.7444 10.225L17.9314 9.246ZM15.8084 15.197C15.7277 15.417 15.7387 15.5893 15.8414 15.714C15.944 15.8313 16.0614 15.89 16.1934 15.89H16.2814V16H14.1804V15.89C14.1804 15.89 14.195 15.89 14.2244 15.89C14.2537 15.89 14.2684 15.89 14.2684 15.89C14.4224 15.89 14.58 15.8387 14.7414 15.736C14.9027 15.626 15.042 15.4463 15.1594 15.197H15.8084ZM17.9314 9.246L18.0084 10.005L15.4894 15.967H14.7964L17.4034 10.379C17.4034 10.379 17.4217 10.335 17.4584 10.247C17.5024 10.159 17.55 10.0527 17.6014 9.928C17.66 9.796 17.7114 9.66767 17.7554 9.543C17.7994 9.41833 17.825 9.31933 17.8324 9.246H17.9314ZM19.2294 13.437V13.767H16.3144V13.437H19.2294ZM19.7904 15.197H20.6264C20.7364 15.4463 20.872 15.626 21.0334 15.736C21.1947 15.8387 21.3487 15.89 21.4954 15.89C21.4954 15.89 21.51 15.89 21.5394 15.89C21.5687 15.89 21.5834 15.89 21.5834 15.89V16H19.3284V15.89H19.4164C19.541 15.89 19.6547 15.8313 19.7574 15.714C19.86 15.5893 19.871 15.417 19.7904 15.197ZM28.6942 13.228L28.5732 14.735C28.3825 15.0283 28.1332 15.2813 27.8252 15.494C27.5172 15.7067 27.1688 15.8717 26.7802 15.989C26.3915 16.099 25.9808 16.154 25.5482 16.154C24.8075 16.1467 24.1622 16.0037 23.6122 15.725C23.0695 15.4463 22.6515 15.0503 22.3582 14.537C22.0648 14.0237 21.9182 13.4113 21.9182 12.7C21.9182 11.9813 22.0648 11.3653 22.3582 10.852C22.6515 10.3387 23.0695 9.94267 23.6122 9.664C24.1622 9.38533 24.8075 9.246 25.5482 9.246C26.0028 9.246 26.4612 9.30467 26.9232 9.422C27.3852 9.53933 27.7848 9.70433 28.1222 9.917L28.3642 11.468H28.2652C28.1038 10.7933 27.7775 10.3093 27.2862 10.016C26.8022 9.72267 26.2192 9.576 25.5372 9.576C24.9578 9.576 24.4555 9.70433 24.0302 9.961C23.6122 10.2103 23.2858 10.5697 23.0512 11.039C22.8238 11.501 22.7102 12.0547 22.7102 12.7C22.7102 13.3307 22.8238 13.8807 23.0512 14.35C23.2858 14.812 23.6158 15.1713 24.0412 15.428C24.4665 15.6773 24.9688 15.8057 25.5482 15.813C26.0982 15.813 26.5932 15.725 27.0332 15.549C27.4805 15.3657 27.8435 15.0833 28.1222 14.702C28.4008 14.3207 28.5585 13.8293 28.5952 13.228H28.6942ZM32.215 12.315L35.086 15.439C35.2107 15.5857 35.3427 15.6957 35.482 15.769C35.6214 15.8423 35.8084 15.8827 36.043 15.89V16H35.636C35.548 16 35.438 15.9963 35.306 15.989C35.1814 15.9743 35.042 15.9487 34.888 15.912C34.7414 15.868 34.591 15.8057 34.437 15.725C34.2904 15.637 34.151 15.5197 34.019 15.373C34.019 15.373 33.9604 15.3107 33.843 15.186C33.733 15.054 33.5864 14.889 33.403 14.691C33.2197 14.4857 33.0217 14.273 32.809 14.053C32.6037 13.8257 32.4094 13.613 32.226 13.415C32.0427 13.2097 31.8924 13.0447 31.775 12.92C31.6577 12.788 31.599 12.722 31.599 12.722L32.215 12.315ZM35.152 9.477L32.116 12.722H31.599L34.36 9.477H35.152ZM35.867 9.4V9.51H35.823C35.5957 9.51 35.383 9.54667 35.185 9.62C34.9944 9.69333 34.8367 9.80333 34.712 9.95L33.964 9.939C34.0447 9.83633 34.0557 9.741 33.997 9.653C33.9457 9.55767 33.854 9.51 33.722 9.51H33.623V9.4H35.823H35.867ZM31.214 9.4V16H30.51V9.4H31.214ZM30.532 15.296V16H29.729V15.89C29.729 15.89 29.751 15.89 29.795 15.89C29.839 15.89 29.861 15.89 29.861 15.89C30.037 15.89 30.1874 15.8313 30.312 15.714C30.4367 15.5967 30.5027 15.4573 30.51 15.296H30.532ZM31.181 15.296H31.214C31.214 15.4573 31.2764 15.5967 31.401 15.714C31.5257 15.8313 31.6797 15.89 31.863 15.89C31.863 15.89 31.8814 15.89 31.918 15.89C31.962 15.89 31.984 15.89 31.984 15.89V16H31.181V15.296ZM31.181 10.104V9.4H31.984V9.51C31.984 9.51 31.962 9.51 31.918 9.51C31.8814 9.51 31.8594 9.51 31.852 9.51C31.676 9.51 31.5257 9.56867 31.401 9.686C31.2764 9.796 31.214 9.93533 31.214 10.104H31.181ZM30.532 10.104H30.51C30.5027 9.93533 30.4367 9.796 30.312 9.686C30.1874 9.56867 30.037 9.51 29.861 9.51C29.861 9.51 29.839 9.51 29.795 9.51C29.751 9.51 29.729 9.51 29.729 9.51V9.4H30.532V10.104Z" fill="white"/>
</svg>
