<svg width="38" height="30" viewBox="0 0 38 30" fill="none" xmlns="http://www.w3.org/2000/svg">
<path fill-rule="evenodd" clip-rule="evenodd" d="M38 0H0V24.8182H5.42037L9.5 30L13.5796 24.8182H38V0Z" fill="black"/>
<path d="M4.989 8.9H6.367C6.97367 8.9 7.485 8.991 7.901 9.173C8.32567 9.355 8.64633 9.61067 8.863 9.94C9.07967 10.2607 9.188 10.6377 9.188 11.071C9.188 11.435 9.11867 11.7557 8.98 12.033C8.84133 12.3017 8.66367 12.5227 8.447 12.696C8.23033 12.8607 8.00067 12.9777 7.758 13.047C8.21733 13.1163 8.61167 13.268 8.941 13.502C9.279 13.736 9.53467 14.0307 9.708 14.386C9.89 14.7327 9.981 15.1227 9.981 15.556C9.981 16.0413 9.864 16.4703 9.63 16.843C9.396 17.207 9.04933 17.493 8.59 17.701C8.13933 17.9003 7.59333 18 6.952 18H5.509C5.509 18 5.509 17.961 5.509 17.883C5.51767 17.805 5.522 17.727 5.522 17.649C5.522 17.571 5.522 17.532 5.522 17.532H6.9C7.35067 17.532 7.732 17.454 8.044 17.298C8.356 17.1333 8.59433 16.895 8.759 16.583C8.92367 16.271 9.006 15.8983 9.006 15.465C9.006 14.9797 8.91067 14.5853 8.72 14.282C8.538 13.9787 8.29967 13.749 8.005 13.593C7.71033 13.437 7.38967 13.333 7.043 13.281C6.705 13.2203 6.38 13.19 6.068 13.19V13.073C6.26733 13.073 6.48833 13.0513 6.731 13.008C6.97367 12.9647 7.20767 12.878 7.433 12.748C7.65833 12.618 7.84467 12.4273 7.992 12.176C8.13933 11.916 8.213 11.578 8.213 11.162C8.213 10.772 8.13933 10.4383 7.992 10.161C7.85333 9.88367 7.641 9.67567 7.355 9.537C7.07767 9.38967 6.731 9.316 6.315 9.316H5.119C5.119 9.30733 5.106 9.27267 5.08 9.212C5.06267 9.14267 5.041 9.07333 5.015 9.004C4.99767 8.93467 4.989 8.9 4.989 8.9ZM5.626 8.9V18H4.781V8.9H5.626ZM4.82 17.051V18H3.78L3.793 17.87C3.81033 17.87 3.83633 17.87 3.871 17.87C3.91433 17.87 3.94033 17.87 3.949 17.87C4.17433 17.87 4.36933 17.792 4.534 17.636C4.69867 17.4713 4.781 17.2763 4.781 17.051H4.82ZM4.82 9.849H4.781C4.781 9.62367 4.69867 9.433 4.534 9.277C4.36933 9.11233 4.17433 9.03 3.949 9.03C3.94033 9.03 3.91433 9.03 3.871 9.03C3.83633 9.03 3.81033 9.03 3.793 9.03L3.78 8.9H4.82V9.849ZM12.9732 10.2V18H12.1412V10.2H12.9732ZM16.4702 17.597L16.4442 18H12.9472V17.597H16.4702ZM17.1982 16.141L16.4832 18H14.5072L14.9492 17.597C15.3826 17.597 15.7292 17.5363 15.9892 17.415C16.2579 17.285 16.4746 17.1117 16.6392 16.895C16.8039 16.6697 16.9469 16.4183 17.0682 16.141H17.1982ZM12.1672 17.168L12.3362 18H11.2052V17.87C11.2052 17.87 11.2356 17.87 11.2962 17.87C11.3569 17.87 11.3872 17.87 11.3872 17.87C11.6039 17.87 11.7816 17.8007 11.9202 17.662C12.0589 17.5233 12.1326 17.3587 12.1412 17.168H12.1672ZM12.9342 11.032V10.2H13.8962V10.33C13.8962 10.33 13.8702 10.33 13.8182 10.33C13.7662 10.33 13.7402 10.33 13.7402 10.33C13.5322 10.33 13.3502 10.3993 13.1942 10.538C13.0469 10.668 12.9732 10.8327 12.9732 11.032H12.9342ZM12.1672 11.032H12.1412C12.1326 10.8327 12.0546 10.668 11.9072 10.538C11.7599 10.3993 11.5779 10.33 11.3612 10.33C11.3612 10.33 11.3352 10.33 11.2832 10.33C11.2312 10.33 11.2052 10.33 11.2052 10.33V10.2H12.1672V11.032ZM19.2882 10.2V15.114C19.2882 15.9547 19.5005 16.6177 19.9252 17.103C20.3585 17.5883 20.9479 17.831 21.6932 17.831C22.5165 17.831 23.1622 17.6013 23.6302 17.142C24.1069 16.6827 24.3452 16.0543 24.3452 15.257V10.2H24.9432V15.257C24.9432 16.1583 24.6529 16.8733 24.0722 17.402C23.5002 17.922 22.7115 18.182 21.7062 18.182C20.7095 18.182 19.9165 17.922 19.3272 17.402C18.7465 16.882 18.4562 16.1713 18.4562 15.27V10.2H19.2882ZM18.4822 10.2V10.889H18.4562C18.4475 10.733 18.3825 10.603 18.2612 10.499C18.1485 10.3863 18.0055 10.33 17.8322 10.33C17.8322 10.33 17.7975 10.33 17.7282 10.33C17.6675 10.33 17.6372 10.33 17.6372 10.33V10.2H18.4822ZM20.1072 10.2V10.33C20.1072 10.33 20.0725 10.33 20.0032 10.33C19.9425 10.33 19.9122 10.33 19.9122 10.33C19.7475 10.33 19.6002 10.3863 19.4702 10.499C19.3489 10.603 19.2882 10.733 19.2882 10.889H19.2622V10.2H20.1072ZM24.3712 10.2V10.889H24.3452C24.3452 10.733 24.2845 10.603 24.1632 10.499C24.0419 10.3863 23.8945 10.33 23.7212 10.33C23.7212 10.33 23.6865 10.33 23.6172 10.33C23.5565 10.33 23.5262 10.33 23.5262 10.33V10.2H24.3712ZM25.7622 10.2V10.33C25.7622 10.33 25.7275 10.33 25.6582 10.33C25.5975 10.33 25.5672 10.33 25.5672 10.33C25.4025 10.33 25.2595 10.3863 25.1382 10.499C25.0169 10.603 24.9519 10.733 24.9432 10.889H24.9172V10.2H25.7622ZM28.7027 10.2V18H27.8707V10.2H28.7027ZM32.1997 17.597L32.1737 18H28.6767V17.597H32.1997ZM31.5887 13.905V14.295H28.6767V13.905H31.5887ZM32.1867 10.2V10.603H28.6767V10.2H32.1867ZM32.9277 16.141L32.2127 18H30.2367L30.6787 17.597C31.1121 17.597 31.4587 17.5363 31.7187 17.415C31.9874 17.285 32.2041 17.1117 32.3687 16.895C32.5334 16.6697 32.6764 16.4183 32.7977 16.141H32.9277ZM31.5887 14.269V15.01H31.4457V14.841C31.4457 14.6937 31.4024 14.568 31.3157 14.464C31.2291 14.3513 31.0947 14.295 30.9127 14.295V14.269H31.5887ZM31.5887 13.19V13.931H30.9127V13.905C31.0947 13.905 31.2291 13.853 31.3157 13.749C31.4024 13.6363 31.4457 13.5063 31.4457 13.359V13.19H31.5887ZM32.1867 10.564V11.461H32.0437V11.266C32.0437 11.084 31.9831 10.928 31.8617 10.798C31.7491 10.668 31.5931 10.603 31.3937 10.603V10.564H32.1867ZM32.1867 9.992V10.33L30.7047 10.2C30.9734 10.2 31.2594 10.1783 31.5627 10.135C31.8661 10.083 32.0741 10.0353 32.1867 9.992ZM27.8967 17.168L28.0657 18H26.9347V17.87C26.9347 17.87 26.9651 17.87 27.0257 17.87C27.0864 17.87 27.1167 17.87 27.1167 17.87C27.3334 17.87 27.5111 17.8007 27.6497 17.662C27.7884 17.5233 27.8621 17.3587 27.8707 17.168H27.8967ZM27.8967 11.019H27.8707C27.8621 10.8197 27.7884 10.655 27.6497 10.525C27.5111 10.395 27.3334 10.33 27.1167 10.33C27.1167 10.33 27.0864 10.33 27.0257 10.33C26.9651 10.33 26.9347 10.33 26.9347 10.33V10.2H28.0657L27.8967 11.019Z" fill="white"/>
</svg>
