<svg width="38" height="30" viewBox="0 0 38 30" fill="none" xmlns="http://www.w3.org/2000/svg">
<path fill-rule="evenodd" clip-rule="evenodd" d="M38 0H0V24.8182H5.42037L9.5 30L13.5796 24.8182H38V0Z" fill="black"/>
<path d="M7.799 12.92V14.735C7.63033 14.955 7.403 15.175 7.117 15.395C6.831 15.615 6.479 15.7983 6.061 15.945C5.65033 16.0843 5.16633 16.154 4.609 16.154C3.83167 16.1467 3.146 15.978 2.552 15.648C1.958 15.3107 1.49233 14.845 1.155 14.251C0.825 13.6497 0.66 12.9493 0.66 12.15C0.66 11.3507 0.825 10.6503 1.155 10.049C1.49233 9.44767 1.958 8.982 2.552 8.652C3.146 8.31467 3.83167 8.146 4.609 8.146C5.01233 8.146 5.37533 8.179 5.698 8.245C6.02067 8.311 6.31033 8.40267 6.567 8.52C6.831 8.63 7.06933 8.75467 7.282 8.894L7.502 10.445H7.403C7.293 10.0197 7.10967 9.664 6.853 9.378C6.60367 9.08467 6.28833 8.861 5.907 8.707C5.52567 8.553 5.093 8.476 4.609 8.476C3.993 8.476 3.45033 8.63 2.981 8.938C2.51167 9.246 2.145 9.675 1.881 10.225C1.617 10.775 1.485 11.4167 1.485 12.15C1.485 12.8833 1.617 13.525 1.881 14.075C2.145 14.625 2.51167 15.054 2.981 15.362C3.45033 15.6627 3.993 15.8167 4.609 15.824C4.93167 15.824 5.23967 15.7873 5.533 15.714C5.83367 15.6333 6.116 15.5233 6.38 15.384C6.644 15.2373 6.87867 15.065 7.084 14.867L7.095 12.92C7.095 12.59 6.908 12.425 6.534 12.425H6.358V12.315H8.514V12.425H8.349C7.96767 12.425 7.78433 12.59 7.799 12.92ZM10.6159 9.4H12.0349C12.3796 9.4 12.6876 9.44033 12.9589 9.521C13.2376 9.60167 13.4723 9.719 13.6629 9.873C13.8609 10.027 14.0113 10.214 14.1139 10.434C14.2166 10.654 14.2679 10.9033 14.2679 11.182C14.2679 11.49 14.1946 11.776 14.0479 12.04C13.9013 12.304 13.6959 12.5203 13.4319 12.689C13.1753 12.8577 12.8819 12.9603 12.5519 12.997C12.6766 13.0483 12.8196 13.162 12.9809 13.338C13.1496 13.514 13.2926 13.6863 13.4099 13.855C13.4099 13.855 13.4576 13.921 13.5529 14.053C13.6483 14.1777 13.7693 14.3353 13.9159 14.526C14.0699 14.7093 14.2203 14.8853 14.3669 15.054C14.5209 15.2227 14.6603 15.3693 14.7849 15.494C14.9169 15.6187 15.0563 15.7177 15.2029 15.791C15.3569 15.857 15.5329 15.89 15.7309 15.89V16H15.3899C14.9866 16 14.6529 15.9487 14.3889 15.846C14.1323 15.7433 13.9233 15.6187 13.7619 15.472C13.6006 15.318 13.4613 15.1713 13.3439 15.032C13.3146 14.9953 13.2449 14.9037 13.1349 14.757C13.0323 14.603 12.9186 14.438 12.7939 14.262C12.6693 14.086 12.5556 13.9283 12.4529 13.789C12.3503 13.6423 12.2879 13.5543 12.2659 13.525C12.1193 13.3343 11.9506 13.1657 11.7599 13.019C11.5693 12.865 11.3676 12.788 11.1549 12.788V12.678C11.1549 12.678 11.2136 12.6817 11.3309 12.689C11.4483 12.689 11.5986 12.6853 11.7819 12.678C11.9873 12.6707 12.1926 12.656 12.3979 12.634C12.6033 12.6047 12.7939 12.524 12.9699 12.392C13.1533 12.26 13.2963 12.04 13.3989 11.732C13.4283 11.6513 13.4503 11.556 13.4649 11.446C13.4796 11.336 13.4833 11.2223 13.4759 11.105C13.4686 10.8997 13.4283 10.7163 13.3549 10.555C13.2889 10.3937 13.1899 10.2543 13.0579 10.137C12.9333 10.0197 12.7829 9.928 12.6069 9.862C12.4309 9.796 12.2329 9.75933 12.0129 9.752C11.6683 9.73733 11.3676 9.73367 11.1109 9.741C10.8543 9.74833 10.7259 9.74833 10.7259 9.741C10.7259 9.73367 10.7149 9.70433 10.6929 9.653C10.6783 9.59433 10.6599 9.53933 10.6379 9.488C10.6233 9.42933 10.6159 9.4 10.6159 9.4ZM10.7479 9.4V16H10.0439V9.4H10.7479ZM10.0769 15.296L10.2089 16H9.27395V15.89C9.27395 15.89 9.29961 15.89 9.35095 15.89C9.40228 15.89 9.42795 15.89 9.42795 15.89C9.60395 15.89 9.75061 15.8313 9.86795 15.714C9.98528 15.5967 10.0476 15.4573 10.0549 15.296H10.0769ZM10.0769 10.093H10.0549C10.0476 9.92433 9.98528 9.785 9.86795 9.675C9.75061 9.565 9.60395 9.51 9.42795 9.51C9.42795 9.51 9.40228 9.51 9.35095 9.51C9.29961 9.51 9.27395 9.51 9.27395 9.51V9.4H10.2089L10.0769 10.093ZM10.7149 15.296H10.7479C10.7553 15.4573 10.8176 15.5967 10.9349 15.714C11.0523 15.8313 11.1989 15.89 11.3749 15.89C11.3749 15.89 11.3969 15.89 11.4409 15.89C11.4923 15.89 11.5179 15.89 11.5179 15.89L11.5289 16H10.5829L10.7149 15.296ZM17.6664 9.4V16H16.9624V9.4H17.6664ZM20.6254 15.659L20.6034 16H17.6444V15.659H20.6254ZM20.1084 12.535V12.865H17.6444V12.535H20.1084ZM20.6144 9.4V9.741H17.6444V9.4H20.6144ZM21.2414 14.427L20.6364 16H18.9644L19.3384 15.659C19.7051 15.659 19.9984 15.6077 20.2184 15.505C20.4458 15.395 20.6291 15.2483 20.7684 15.065C20.9078 14.8743 21.0288 14.6617 21.1314 14.427H21.2414ZM20.1084 12.843V13.47H19.9874V13.327C19.9874 13.2023 19.9508 13.096 19.8774 13.008C19.8041 12.9127 19.6904 12.865 19.5364 12.865V12.843H20.1084ZM20.1084 11.93V12.557H19.5364V12.535C19.6904 12.535 19.8041 12.491 19.8774 12.403C19.9508 12.3077 19.9874 12.1977 19.9874 12.073V11.93H20.1084ZM20.6144 9.708V10.467H20.4934V10.302C20.4934 10.148 20.4421 10.016 20.3394 9.906C20.2441 9.796 20.1121 9.741 19.9434 9.741V9.708H20.6144ZM20.6144 9.224V9.51L19.3604 9.4C19.5878 9.4 19.8298 9.38167 20.0864 9.345C20.3431 9.301 20.5191 9.26067 20.6144 9.224ZM16.9844 15.296L17.1274 16H16.1704V15.89C16.1704 15.89 16.1961 15.89 16.2474 15.89C16.2988 15.89 16.3244 15.89 16.3244 15.89C16.5078 15.89 16.6581 15.8313 16.7754 15.714C16.8928 15.5967 16.9551 15.4573 16.9624 15.296H16.9844ZM16.9844 10.093H16.9624C16.9551 9.92433 16.8928 9.785 16.7754 9.675C16.6581 9.565 16.5078 9.51 16.3244 9.51C16.3244 9.51 16.2988 9.51 16.2474 9.51C16.1961 9.51 16.1704 9.51 16.1704 9.51V9.4H17.1274L16.9844 10.093ZM23.5639 9.4V16H22.8599V9.4H23.5639ZM26.5229 15.659L26.5009 16H23.5419V15.659H26.5229ZM26.0059 12.535V12.865H23.5419V12.535H26.0059ZM26.5119 9.4V9.741H23.5419V9.4H26.5119ZM27.1389 14.427L26.5339 16H24.8619L25.2359 15.659C25.6026 15.659 25.8959 15.6077 26.1159 15.505C26.3432 15.395 26.5266 15.2483 26.6659 15.065C26.8052 14.8743 26.9262 14.6617 27.0289 14.427H27.1389ZM26.0059 12.843V13.47H25.8849V13.327C25.8849 13.2023 25.8482 13.096 25.7749 13.008C25.7016 12.9127 25.5879 12.865 25.4339 12.865V12.843H26.0059ZM26.0059 11.93V12.557H25.4339V12.535C25.5879 12.535 25.7016 12.491 25.7749 12.403C25.8482 12.3077 25.8849 12.1977 25.8849 12.073V11.93H26.0059ZM26.5119 9.708V10.467H26.3909V10.302C26.3909 10.148 26.3396 10.016 26.2369 9.906C26.1416 9.796 26.0096 9.741 25.8409 9.741V9.708H26.5119ZM26.5119 9.224V9.51L25.2579 9.4C25.4852 9.4 25.7272 9.38167 25.9839 9.345C26.2406 9.301 26.4166 9.26067 26.5119 9.224ZM22.8819 15.296L23.0249 16H22.0679V15.89C22.0679 15.89 22.0936 15.89 22.1449 15.89C22.1962 15.89 22.2219 15.89 22.2219 15.89C22.4052 15.89 22.5556 15.8313 22.6729 15.714C22.7902 15.5967 22.8526 15.4573 22.8599 15.296H22.8819ZM22.8819 10.093H22.8599C22.8526 9.92433 22.7902 9.785 22.6729 9.675C22.5556 9.565 22.4052 9.51 22.2219 9.51C22.2219 9.51 22.1962 9.51 22.1449 9.51C22.0936 9.51 22.0679 9.51 22.0679 9.51V9.4H23.0249L22.8819 10.093ZM28.6558 9.235L34.7498 14.977L34.8598 16.154L28.7658 10.379L28.6558 9.235ZM28.6778 15.318V16H27.8528V15.89C27.8528 15.89 27.8821 15.89 27.9408 15.89C28.0068 15.89 28.0398 15.89 28.0398 15.89C28.2084 15.89 28.3514 15.835 28.4688 15.725C28.5861 15.615 28.6448 15.4793 28.6448 15.318H28.6778ZM29.1398 15.318C29.1398 15.4793 29.1984 15.615 29.3158 15.725C29.4404 15.835 29.5834 15.89 29.7448 15.89C29.7448 15.89 29.7741 15.89 29.8328 15.89C29.8988 15.89 29.9318 15.89 29.9318 15.89V16H29.1068V15.318H29.1398ZM28.6558 9.235L29.1288 9.851L29.1398 16H28.6448V10.61C28.6448 10.236 28.6264 9.91333 28.5898 9.642C28.5604 9.37067 28.5458 9.235 28.5458 9.235H28.6558ZM34.8598 9.4V14.746C34.8598 14.9807 34.8671 15.208 34.8818 15.428C34.8964 15.6407 34.9111 15.8167 34.9258 15.956C34.9478 16.088 34.9588 16.154 34.9588 16.154H34.8598L34.3758 15.571V9.4H34.8598ZM34.8268 10.082V9.4H35.6518V9.51C35.6518 9.51 35.6188 9.51 35.5528 9.51C35.4941 9.51 35.4648 9.51 35.4648 9.51C35.3034 9.51 35.1604 9.565 35.0358 9.675C34.9184 9.785 34.8598 9.92067 34.8598 10.082H34.8268ZM34.3758 10.082C34.3684 9.92067 34.3061 9.785 34.1888 9.675C34.0714 9.565 33.9284 9.51 33.7598 9.51C33.7598 9.51 33.7268 9.51 33.6608 9.51C33.6021 9.51 33.5728 9.51 33.5728 9.51V9.4H34.3978V10.082H34.3758Z" fill="white"/>
</svg>
