<svg width="20" height="17" viewBox="0 0 20 17" fill="none" xmlns="http://www.w3.org/2000/svg">
<path d="M5.66667 1.80832L5.66714 1.80832C6.32818 1.80785 6.9796 1.96667 7.56624 2.27133C8.15288 2.576 8.65747 3.01753 9.03729 3.55855C9.16358 3.73843 9.36954 3.84556 9.58932 3.8457C9.8091 3.84584 10.0152 3.73896 10.1417 3.55924C10.8881 2.49895 12.1201 1.80832 13.5128 1.80832C15.7881 1.80832 17.6327 3.6529 17.6327 5.92819C17.6327 8.06635 16.3584 10.1926 14.6133 11.955C12.9605 13.6242 10.9886 14.861 9.58974 15.3804C8.19092 14.861 6.21902 13.6242 4.56618 11.955C2.82106 10.1926 1.5468 8.06635 1.5468 5.92819C1.5468 3.6529 3.39138 1.80832 5.66667 1.80832Z" stroke="black" stroke-width="1.35" stroke-linecap="round" stroke-linejoin="round"/>
</svg>
