<svg width="16" height="17" viewBox="0 0 16 17" fill="none" xmlns="http://www.w3.org/2000/svg">
<g clip-path="url(#clip0_925_500)">
<path d="M14.5779 5.65404C14.7289 5.65404 14.8737 5.71401 14.9804 5.82075C15.0872 5.9275 15.1471 6.07227 15.1471 6.22323V13.9074C15.1471 14.9832 14.2307 15.8996 13.1549 15.8996H3.4786C2.40282 15.8996 1.48641 15.0276 1.48641 13.9519V6.22323C1.48641 6.07227 1.54638 5.9275 1.65312 5.82075C1.75987 5.71401 1.90465 5.65404 2.05561 5.65404H14.5779Z" stroke="black" stroke-width="1.35" stroke-linecap="round" stroke-linejoin="round"/>
<path d="M11.7319 5.65401V4.51561C11.7319 3.60985 11.3721 2.74119 10.7317 2.10072C10.0912 1.46025 9.22253 1.10043 8.31677 1.10043C7.41101 1.10043 6.54235 1.46025 5.90188 2.10072C5.26141 2.74119 4.90159 3.60985 4.90159 4.51561V5.65401" stroke="black" stroke-width="1.35" stroke-linecap="round" stroke-linejoin="round"/>
<path d="M11.7319 7.3616V7.9308C11.7319 8.83656 11.3721 9.70522 10.7317 10.3457C10.0912 10.9862 9.22253 11.346 8.31677 11.346C7.41101 11.346 6.54235 10.9862 5.90188 10.3457C5.26141 9.70522 4.90159 8.83656 4.90159 7.9308V7.3616" stroke="black" stroke-width="1.35" stroke-linecap="round" stroke-linejoin="round"/>
</g>
<defs>
<clipPath id="clip0_925_500">
<rect width="15.1111" height="17" fill="white" transform="matrix(-1 0 0 1 16 0)"/>
</clipPath>
</defs>
</svg>
