<svg width="38" height="30" viewBox="0 0 38 30" fill="none" xmlns="http://www.w3.org/2000/svg">
<path fill-rule="evenodd" clip-rule="evenodd" d="M38 0H0V24.8182H5.42037L9.5 30L13.5796 24.8182H38V0Z" fill="black"/>
<path d="M8.457 8.9H10.29C10.68 8.9 11.031 8.95633 11.343 9.069C11.6637 9.18167 11.9323 9.34633 12.149 9.563C12.3657 9.771 12.5303 10.0267 12.643 10.33C12.7643 10.6247 12.825 10.9627 12.825 11.344C12.825 11.76 12.7253 12.1587 12.526 12.54C12.3353 12.9213 12.071 13.2333 11.733 13.476C11.4037 13.71 11.031 13.827 10.615 13.827C10.7623 13.8877 10.9227 14.0133 11.096 14.204C11.2693 14.386 11.421 14.5637 11.551 14.737C11.551 14.737 11.6073 14.8237 11.72 14.997C11.8413 15.1617 11.9887 15.3653 12.162 15.608C12.344 15.8507 12.526 16.089 12.708 16.323C12.89 16.557 13.046 16.7433 13.176 16.882C13.3493 17.0727 13.5227 17.2417 13.696 17.389C13.8693 17.5363 14.0557 17.6533 14.255 17.74C14.463 17.8267 14.6927 17.87 14.944 17.87V18H14.229C13.8303 18 13.4837 17.9393 13.189 17.818C12.903 17.6967 12.6603 17.5493 12.461 17.376C12.2617 17.194 12.0927 17.0207 11.954 16.856C11.928 16.8213 11.8543 16.7217 11.733 16.557C11.6203 16.3923 11.4817 16.1973 11.317 15.972C11.161 15.738 11.005 15.5083 10.849 15.283C10.693 15.0577 10.5587 14.867 10.446 14.711C10.3333 14.5463 10.2683 14.451 10.251 14.425C10.0863 14.2083 9.90433 14.009 9.705 13.827C9.50567 13.645 9.289 13.554 9.055 13.554V13.424C9.055 13.424 9.12 13.4283 9.25 13.437C9.38867 13.437 9.55333 13.4327 9.744 13.424C9.96933 13.4153 10.2163 13.3807 10.485 13.32C10.7537 13.2593 11.005 13.1337 11.239 12.943C11.473 12.7523 11.6507 12.462 11.772 12.072C11.798 11.9767 11.8197 11.8597 11.837 11.721C11.8543 11.5737 11.8587 11.4307 11.85 11.292C11.8413 10.7027 11.6897 10.2347 11.395 9.888C11.109 9.53267 10.7233 9.342 10.238 9.316C9.99533 9.29867 9.744 9.29433 9.484 9.303C9.23267 9.303 9.02033 9.303 8.847 9.303C8.67367 9.303 8.587 9.303 8.587 9.303C8.587 9.29433 8.574 9.25967 8.548 9.199C8.53067 9.12967 8.509 9.06467 8.483 9.004C8.46567 8.93467 8.457 8.9 8.457 8.9ZM8.626 8.9V18H7.781V8.9H8.626ZM7.82 17.051V18H6.78V17.87C6.78 17.87 6.806 17.87 6.858 17.87C6.91867 17.87 6.949 17.87 6.949 17.87C7.17433 17.87 7.365 17.792 7.521 17.636C7.68567 17.4713 7.77233 17.2763 7.781 17.051H7.82ZM7.82 9.849H7.781C7.77233 9.62367 7.68567 9.433 7.521 9.277C7.365 9.11233 7.17433 9.03 6.949 9.03C6.949 9.03 6.91867 9.03 6.858 9.03C6.806 9.03 6.78 9.03 6.78 9.03V8.9H7.82V9.849ZM8.587 17.051H8.626C8.626 17.2763 8.70833 17.4713 8.873 17.636C9.03767 17.792 9.23267 17.87 9.458 17.87C9.458 17.87 9.484 17.87 9.536 17.87C9.588 17.87 9.614 17.87 9.614 17.87V18H8.587V17.051ZM16.8873 10.2V18H16.0553V10.2H16.8873ZM20.3843 17.597L20.3583 18H16.8613V17.597H20.3843ZM19.7733 13.905V14.295H16.8613V13.905H19.7733ZM20.3713 10.2V10.603H16.8613V10.2H20.3713ZM21.1123 16.141L20.3973 18H18.4213L18.8633 17.597C19.2966 17.597 19.6433 17.5363 19.9033 17.415C20.172 17.285 20.3886 17.1117 20.5533 16.895C20.718 16.6697 20.861 16.4183 20.9823 16.141H21.1123ZM19.7733 14.269V15.01H19.6303V14.841C19.6303 14.6937 19.587 14.568 19.5003 14.464C19.4136 14.3513 19.2793 14.295 19.0973 14.295V14.269H19.7733ZM19.7733 13.19V13.931H19.0973V13.905C19.2793 13.905 19.4136 13.853 19.5003 13.749C19.587 13.6363 19.6303 13.5063 19.6303 13.359V13.19H19.7733ZM20.3713 10.564V11.461H20.2283V11.266C20.2283 11.084 20.1676 10.928 20.0463 10.798C19.9336 10.668 19.7776 10.603 19.5783 10.603V10.564H20.3713ZM20.3713 9.992V10.33L18.8893 10.2C19.158 10.2 19.444 10.1783 19.7473 10.135C20.0506 10.083 20.2586 10.0353 20.3713 9.992ZM16.0813 17.168L16.2503 18H15.1193V17.87C15.1193 17.87 15.1496 17.87 15.2103 17.87C15.271 17.87 15.3013 17.87 15.3013 17.87C15.518 17.87 15.6956 17.8007 15.8343 17.662C15.973 17.5233 16.0466 17.3587 16.0553 17.168H16.0813ZM16.0813 11.019H16.0553C16.0466 10.8197 15.973 10.655 15.8343 10.525C15.6956 10.395 15.518 10.33 15.3013 10.33C15.3013 10.33 15.271 10.33 15.2103 10.33C15.1496 10.33 15.1193 10.33 15.1193 10.33V10.2H16.2503L16.0813 11.019ZM26.431 10.2C27.289 10.2 28.03 10.356 28.654 10.668C29.278 10.98 29.759 11.4307 30.097 12.02C30.435 12.6007 30.604 13.294 30.604 14.1C30.604 14.906 30.435 15.5993 30.097 16.18C29.759 16.7607 29.278 17.2113 28.654 17.532C28.03 17.844 27.289 18 26.431 18H23.662L23.636 17.61C24.2427 17.61 24.7497 17.61 25.157 17.61C25.573 17.61 25.8894 17.61 26.106 17.61C26.3227 17.61 26.431 17.61 26.431 17.61C27.4364 17.61 28.225 17.298 28.797 16.674C29.3777 16.0413 29.668 15.1833 29.668 14.1C29.668 13.0167 29.3777 12.163 28.797 11.539C28.225 10.9063 27.4364 10.59 26.431 10.59C26.431 10.59 26.3184 10.59 26.093 10.59C25.8677 10.59 25.5384 10.59 25.105 10.59C24.6717 10.59 24.1387 10.59 23.506 10.59V10.2H26.431ZM23.844 10.2V18H22.999V10.2H23.844ZM23.025 17.155V18H22.089V17.87C22.089 17.87 22.115 17.87 22.167 17.87C22.2277 17.87 22.258 17.87 22.258 17.87C22.466 17.87 22.6394 17.8007 22.778 17.662C22.9167 17.5147 22.9904 17.3457 22.999 17.155H23.025ZM23.025 11.045H22.999C22.9904 10.837 22.9124 10.668 22.765 10.538C22.6264 10.3993 22.453 10.33 22.245 10.33C22.245 10.33 22.219 10.33 22.167 10.33C22.115 10.33 22.089 10.33 22.089 10.33V10.2H23.025V11.045Z" fill="white"/>
</svg>
